<svg width="32" height="32" viewBox="0 0 32 32" fill="none" xmlns="http://www.w3.org/2000/svg">
  <rect width="32" height="32" rx="6" fill="#6366F1"/>
  <path d="M16 8C14.5 8 13.2 8.6 12.3 9.5C11.4 10.4 11 11.6 11 13C11 14.4 11.4 15.6 12.3 16.5C13.2 17.4 14.5 18 16 18C17.5 18 18.8 17.4 19.7 16.5C20.6 15.6 21 14.4 21 13C21 11.6 20.6 10.4 19.7 9.5C18.8 8.6 17.5 8 16 8ZM16 16C15.2 16 14.5 15.7 14 15.2C13.5 14.7 13.2 14 13.2 13.2C13.2 12.4 13.5 11.7 14 11.2C14.5 10.7 15.2 10.4 16 10.4C16.8 10.4 17.5 10.7 18 11.2C18.5 11.7 18.8 12.4 18.8 13.2C18.8 14 18.5 14.7 18 15.2C17.5 15.7 16.8 16 16 16Z" fill="white"/>
  <path d="M22 20C21.5 20 21 20.2 20.6 20.6C20.2 21 20 21.5 20 22C20 22.5 20.2 23 20.6 23.4C21 23.8 21.5 24 22 24C22.5 24 23 23.8 23.4 23.4C23.8 23 24 22.5 24 22C24 21.5 23.8 21 23.4 20.6C23 20.2 22.5 20 22 20ZM22 22.8C21.8 22.8 21.6 22.7 21.5 22.6C21.4 22.5 21.3 22.3 21.3 22.1C21.3 21.9 21.4 21.7 21.5 21.6C21.6 21.5 21.8 21.4 22 21.4C22.2 21.4 22.4 21.5 22.5 21.6C22.6 21.7 22.7 21.9 22.7 22.1C22.7 22.3 22.6 22.5 22.5 22.6C22.4 22.7 22.2 22.8 22 22.8Z" fill="white"/>
  <path d="M10 20C9.5 20 9 20.2 8.6 20.6C8.2 21 8 21.5 8 22C8 22.5 8.2 23 8.6 23.4C9 23.8 9.5 24 10 24C10.5 24 11 23.8 11.4 23.4C11.8 23 12 22.5 12 22C12 21.5 11.8 21 11.4 20.6C11 20.2 10.5 20 10 20ZM10 22.8C9.8 22.8 9.6 22.7 9.5 22.6C9.4 22.5 9.3 22.3 9.3 22.1C9.3 21.9 9.4 21.7 9.5 21.6C9.6 21.5 9.8 21.4 10 21.4C10.2 21.4 10.4 21.5 10.5 21.6C10.6 21.7 10.7 21.9 10.7 22.1C10.7 22.3 10.6 22.5 10.5 22.6C10.4 22.7 10.2 22.8 10 22.8Z" fill="white"/>
  <path d="M16 26C15.5 26 15 25.8 14.6 25.4C14.2 25 14 24.5 14 24C14 23.5 14.2 23 14.6 22.6C15 22.2 15.5 22 16 22C16.5 22 17 22.2 17.4 22.6C17.8 23 18 23.5 18 24C18 24.5 17.8 25 17.4 25.4C17 25.8 16.5 26 16 26ZM16 24.8C15.8 24.8 15.6 24.7 15.5 24.6C15.4 24.5 15.3 24.3 15.3 24.1C15.3 23.9 15.4 23.7 15.5 23.6C15.6 23.5 15.8 23.4 16 23.4C16.2 23.4 16.4 23.5 16.5 23.6C16.6 23.7 16.7 23.9 16.7 24.1C16.7 24.3 16.6 24.5 16.5 24.6C16.4 24.7 16.2 24.8 16 24.8Z" fill="white"/>
</svg> 